:SAMPLES-PER-SECOND 30
:FRAME-RANGE 1-3358
:FULLY-SPECIFIED
:DEGREES
2729
root  1.13306 34.0116 -56.2539 178.398 -32.3132 -175.917
RightUpLeg  -46.7435 -23.3608 4.5119
RightLeg  47.5401 0.327916 0.053179
RightFoot  -1.07185 -0.172711 1.83987
RightToes  -5.8209e-011 0 -3.6325e-017
Spine  14.072 4.98057 8.50701
Spine1  -4.89027 8.1724 -10.967
HEad  -14.5785 18.4152 11.6133
LeftShoulder1  1.25786 -1.04308 -21.2715
LeftArm  11.4372 -1.06714 -45.8176
LeftForeArm  -4.19455 -16.1999 -10.4845
LeftHand  -0.114881 2.56195 4.26424
RightShoulder  -1.10235 29.0047 -13.5122
RightArm  -50.4077 39.8109 -3.21353
RightForeArm  -34.5989 3.62318 7.50105
RightHand  0.0669047 -2.76944 3.7303
LeftUpLeg  6.91043 -4.76383 12.6684
LeftLeg  42.0092 -2.13534 -1.66302
LeftFoot  -42.7275 -4.0824 -15.3814
LeftToes  -4.03819e-010 -8.71445e-011 8.52097e-011
2730
root  1.18902 34.2957 -58.4615 176.65 -34.1813 -173.532
RightUpLeg  -43.8832 -24.9684 7.02209
RightLeg  50.4285 -0.137713 -0.540908
RightFoot  -6.00417 -0.0887821 1.02965
RightToes  -5.8209e-011 0 -3.6325e-017
Spine  13.4513 3.38373 9.96091
Spine1  -3.94089 6.80125 -10.3241
HEad  -16.3928 19.2766 11.7069
LeftShoulder1  1.34588 -1.3837 -21.1392
LeftArm  11.4363 -2.23424 -47.7012
LeftForeArm  -3.69454 -15.6387 -10.9145
LeftHand  -0.0999343 3.38734 4.95061
RightShoulder  -1.21402 28.492 -13.9718
RightArm  -49.0939 39.1814 -2.92045
RightForeArm  -34.0268 4.96893 8.20384
RightHand  0.0667375 -3.06812 4.3078
LeftUpLeg  9.86021 -5.38035 18.185
LeftLeg  39.8214 -4.40096 -3.54717
LeftFoot  -36.2565 -4.32391 -20.3762
LeftToes  -4.03819e-010 -8.71445e-011 8.52097e-011
2731
root  1.23784 35.2398 -60.7202 176.358 -37.2885 -173.138
RightUpLeg  -38.5243 -26.9245 7.65747
RightLeg  48.3754 -1.04467 -1.60743
RightFoot  -9.93372 -0.072315 0.407509
RightToes  -5.8209e-011 0 -3.6325e-017
Spine  11.8404 2.67469 8.64149
Spine1  -3.69395 5.73428 -9.13568
HEad  -14.4585 17.9641 14.1702
LeftShoulder1  1.40668 -1.61548 -21.0784
LeftArm  9.55356 -4.99602 -49.2451
LeftForeArm  0.938144 -12.3517 -13.1111
LeftHand  -0.0739561 4.21587 5.53415
RightShoulder  -0.882498 27.3666 -12.9159
RightArm  -46.5266 38.0039 -2.07745
RightForeArm  -33.1128 6.06504 9.15542
RightHand  0.0721469 -3.21148 4.94649
LeftUpLeg  9.74553 -3.26737 22.1545
LeftLeg  37.9957 -2.99127 -2.13694
LeftFoot  -21.2913 -1.62244 -19.9178
LeftToes  -4.03819e-010 -8.71445e-011 8.52097e-011
2732
root  1.12329 36.7257 -62.6505 176.397 -39.993 -173.356
RightUpLeg  -31.0785 -28.311 7.10737
RightLeg  41.478 -1.83513 -2.03469
RightFoot  -9.89184 -0.0878955 1.6455
RightToes  -5.8209e-011 0 -3.6325e-017
Spine  10.2795 2.09835 7.99965
Spine1  -3.52861 5.04342 -9.65319
HEad  -12.0236 16.1953 16.5176
LeftShoulder1  1.47283 -1.77589 -21.5248
LeftArm  9.58656 -5.26543 -49.9603
LeftForeArm  0.748951 -12.0878 -13.3326
LeftHand  -0.0878418 3.56257 4.58504
RightShoulder  -1.02005 26.3813 -13.5497
RightArm  -43.5141 36.9248 -0.944359
RightForeArm  -34.2604 6.68062 10.1465
RightHand  0.0395922 -4.16679 6.37887
LeftUpLeg  7.58386 -0.22894 22.9528
LeftLeg  37.8372 0.736941 0.982732
LeftFoot  -10.8154 0.113852 -10.6999
LeftToes  -4.03819e-010 -8.71445e-011 8.52097e-011
2733
root  0.958421 38.5251 -64.3629 176.888 -43.0216 -174.033
RightUpLeg  -23.5637 -28.2 5.67781
RightLeg  32.7509 -3.24408 -2.49989
RightFoot  -4.75059 -0.350842 5.52608
RightToes  -5.8209e-011 0 -3.6325e-017
Spine  8.71945 1.68132 6.63125
Spine1  -3.20517 4.38023 -9.79149
HEad  -9.07933 13.7387 18.6147
LeftShoulder1  1.54167 -1.99308 -21.6862
LeftArm  7.39612 -5.09723 -50.2615
LeftForeArm  4.44347 -9.44323 -14.6417
LeftHand  -0.0777263 3.66728 4.12235
RightShoulder  -1.21199 25.4726 -14.4285
RightArm  -39.9481 36.1212 -0.317973
RightForeArm  -33.2054 6.89842 11.289
RightHand  0.0246476 -4.57891 8.05299
LeftUpLeg  3.9712 3.99169 21.7732
LeftLeg  38.4454 2.09721 2.15645
LeftFoot  -10.5694 0.136398 -10.8469
LeftToes  -4.03819e-010 -8.71445e-011 8.52097e-011
2734
root  0.708984 40.2734 -65.8554 177.173 -46.1897 -174.472
RightUpLeg  -17.9581 -28.1126 3.45534
RightLeg  26.4809 -1.4153 -1.0001
RightFoot  4.95407 -1.65542 11.763
RightToes  -5.8209e-011 0 -3.6325e-017
Spine  7.35763 1.65789 6.03311
Spine1  -2.79655 4.19533 -9.94804
HEad  -5.35356 10.2832 19.2881
LeftShoulder1  1.66322 -2.38179 -21.9155
LeftArm  4.53724 -4.9601 -49.8956
LeftForeArm  9.02124 -5.09248 -16.2571
LeftHand  -0.0872047 3.25344 3.94215
RightShoulder  -1.41091 24.5413 -15.3977
RightArm  -36.1626 35.3976 0.0290224
RightForeArm  -30.3158 6.96143 12.2833
RightHand  0.045001 -4.44564 9.43837
LeftUpLeg  -0.391595 9.03581 19.2417
LeftLeg  38.7291 2.42702 2.45947
LeftFoot  -11.341 0.0677487 -12.5803
LeftToes  -4.03819e-010 -8.71445e-011 8.52097e-011
2735
root  0.410621 41.7486 -67.1572 177.339 -48.8989 -174.257
RightUpLeg  -15.7554 -27.4482 0.762239
RightLeg  24.7264 5.81844 2.69603
RightFoot  17.8749 -3.957 15.5817
RightToes  -5.8209e-011 0 -3.6325e-017
Spine  6.5514 2.05365 7.25086
Spine1  -3.12327 4.52127 -10.7228
HEad  -1.80851 6.63809 18.0446
LeftShoulder1  1.71409 -2.49715 -22.2394
LeftArm  5.12572 -3.98282 -49.0809
LeftForeArm  10.531 -2.32662 -17.1762
LeftHand  -0.0807045 3.13704 3.41273
RightShoulder  -1.71992 23.697 -16.8716
RightArm  -33.7882 35.0116 -0.0993575
RightForeArm  -27.8727 7.14568 12.8137
RightHand  0.0720634 -4.25214 10.5357
LeftUpLeg  -4.84887 13.9213 16.2865
LeftLeg  37.4818 3.60494 3.33109
LeftFoot  -11.6409 0.032173 -14.2004
LeftToes  -4.03819e-010 -8.71445e-011 8.52097e-011
2736
root  0.249401 42.7309 -68.4477 177.891 -51.617 -174.448
RightUpLeg  -16.7887 -25.4238 -2.31307
RightLeg  30.361 2.21623 1.16559
RightFoot  23.9305 -4.26311 13.8885
RightToes  -5.8209e-011 0 -3.6325e-017
Spine  6.50944 2.70082 7.83802
Spine1  -3.51217 5.00974 -11.3817
HEad  -0.698436 3.96761 15.4774
LeftShoulder1  1.71212 -2.53459 -22.0172
LeftArm  4.10759 -1.98253 -48.1507
LeftForeArm  14.2348 -0.566263 -17.3608
LeftHand  -0.0992581 1.67646 2.87121
RightShoulder  -2.09781 22.6904 -18.793
RightArm  -34.7936 35.3874 -1.46016
RightForeArm  -24.3974 6.33796 12.7453
RightHand  0.108689 -3.8801 10.5507
LeftUpLeg  -8.94212 16.5354 12.8879
LeftLeg  34.1707 4.43751 3.59561
LeftFoot  -10.3828 0.192535 -15.5348
LeftToes  -4.03819e-010 -8.71445e-011 8.52097e-011
2737
root  0.180071 43.2187 -69.6542 177.498 -53.6679 -174.357
RightUpLeg  -19.9684 -24.2234 -6.02307
RightLeg  44.673 -5.41608 -6.01441
RightFoot  16.7138 -2.09474 8.83644
RightToes  -5.8209e-011 0 -3.6325e-017
Spine  7.51221 3.23528 8.63322
Spine1  -3.10023 5.54193 -10.8812
HEad  -1.16177 2.51021 13.2668
LeftShoulder1  1.64626 -2.48254 -21.1088
LeftArm  3.25062 0.81459 -46.7589
LeftForeArm  15.5823 -1.39599 -17.0114
LeftHand  -0.103299 0.616055 2.45952
RightShoulder  -2.54996 22.1892 -20.9683
RightArm  -39.7011 36.2135 -3.24082
RightForeArm  -20.5602 4.98694 11.4322
RightHand  0.137059 -3.47492 9.8393
LeftUpLeg  -11.2035 17.5661 10.48
LeftLeg  28.5468 1.66378 1.32768
LeftFoot  -7.15779 0.706105 -18.0352
LeftToes  -4.03819e-010 -8.71445e-011 8.52097e-011
2738
root  0.115125 43.2651 -70.7955 176.47 -55.4896 -173.687
RightUpLeg  -22.5258 -22.5755 -10.1364
RightLeg  56.0738 -4.85725 -8.15273
RightFoot  13.601 -0.440189 2.41585
RightToes  -5.8209e-011 0 -3.6325e-017
Spine  8.91268 3.54721 9.95279
Spine1  -3.18647 5.88539 -10.166
HEad  -1.40087 1.09709 11.1062
LeftShoulder1  1.60248 -2.43873 -20.5386
LeftArm  1.69853 3.31348 -44.1622
LeftForeArm  16.9812 -2.01766 -16.6243
LeftHand  -0.107814 0.190991 2.21157
RightShoulder  -2.79449 22.5085 -21.8898
RightArm  -46.1901 37.4374 -5.23708
RightForeArm  -17.9747 3.49632 9.04442
RightHand  0.153434 -2.65667 7.3017
LeftUpLeg  -12.4691 17.8749 8.94116
LeftLeg  21.8328 -4.31787 -1.57172
LeftFoot  -1.47658 1.94775 -22.2195
LeftToes  -4.03819e-010 -8.71445e-011 8.52097e-011
2739
root  0.0563171 42.9154 -71.9951 175.249 -56.4579 -172.5
RightUpLeg  -23.8778 -21.2427 -13.7052
RightLeg  59.8394 -3.60768 -7.18611
RightFoot  10.821 -0.404002 2.4434
RightToes  -5.8209e-011 0 -3.6325e-017
Spine  10.4988 4.0449 11.1179
Spine1  -4.01631 6.35487 -9.27764
HEad  -1.84654 0.266838 9.102
LeftShoulder1  1.52397 -2.1832 -20.3563
LeftArm  -1.29668 5.09443 -40.6916
LeftForeArm  17.6722 -2.49929 -16.1515
LeftHand  -0.107188 -0.235248 2.25725
RightShoulder  -2.91522 23.3015 -22.0307
RightArm  -52.9267 38.6897 -7.56351
RightForeArm  -13.9723 1.7003 6.3877
RightHand  0.183698 -1.46084 5.73313
LeftUpLeg  -13.4 18.1072 8.34949
LeftLeg  16.4387 -12.0729 -4.01862
LeftFoot  2.63885 3.30698 -26.6625
LeftToes  -4.03819e-010 -8.71445e-011 8.52097e-011
2740
root  -0.0223838 42.2168 -73.1721 173.279 -56.6925 -170.142
RightUpLeg  -24.5474 -21.0994 -15.5874
RightLeg  56.8411 -3.51241 -6.21992
RightFoot  9.95241 -0.970538 5.52364
RightToes  -5.8209e-011 0 -3.6325e-017
Spine  11.817 4.5265 12.826
Spine1  -4.82891 6.88669 -8.33382
HEad  -3.34801 0.316279 7.91325
LeftShoulder1  1.4693 -1.96393 -20.4344
LeftArm  -2.45607 6.27812 -36.7333
LeftForeArm  16.1408 -3.98009 -15.6623
LeftHand  -0.0975238 -0.444462 2.00386
RightShoulder  -2.94936 23.6246 -22.0229
RightArm  -57.8055 39.6239 -9.40761
RightForeArm  -13.3368 0.668722 4.5463
RightHand  0.149034 -0.762978 3.87835
LeftUpLeg  -14.0673 17.9886 9.05425
LeftLeg  13.0585 -13.7034 -4.75808
LeftFoot  6.0349 4.66496 -30.1265
LeftToes  -4.03819e-010 -8.71445e-011 8.52097e-011
2741
root  -0.0435963 41.2718 -74.3898 172.155 -56.5474 -168.936
RightUpLeg  -24.5868 -21.5755 -16.7777
RightLeg  49.1746 -4.18621 -5.52261
RightFoot  9.35991 -1.67155 9.48647
RightToes  -5.8209e-011 0 -3.6325e-017
Spine  12.9382 4.78025 13.3296
Spine1  -4.84769 7.39466 -8.64825
HEad  -4.47138 1.04578 7.86445
LeftShoulder1  1.44376 -1.98317 -19.8353
LeftArm  -1.72301 7.40274 -32.8406
LeftForeArm  13.0664 -6.32424 -14.9945
LeftHand  -0.103048 -0.0919773 2.21234
RightShoulder  -2.97416 23.5652 -22.1538
RightArm  -60.9314 39.6123 -10.2192
RightForeArm  -14.7562 0.158076 3.23686
RightHand  0.146118 -0.541964 3.59872
LeftUpLeg  -15.6674 19.7539 7.73004
LeftLeg  15.2465 -11.5364 -4.06597
LeftFoot  10.6405 2.70621 -14.2111
LeftToes  -4.03819e-010 -8.71445e-011 8.52097e-011
